#!OML:ASF F:\VICON\USERDATA\INSTALL\rory3\rory3.ASF
:FULLY-SPECIFIED
:DEGREES
1
root -1.14994 17.5141 5.03017 -17.1228 -83.4069 37.5654
lowerback -12.0866 1.40062 5.54904
upperback -13.834 0.572148 -0.577169
thorax -7.97527 -0.65115 -3.6294
lowerneck -6.24087 17.9261 12.9891
upperneck 12.2114 22.4468 2.21675
head 5.87982 11.6445 0.57814
rclavicle -2.78299e-015 1.90833e-014
rhumerus 7.71466 -25.2161 28.0173
rradius 114.607
rwrist -62.5794
rhand -5.46939 -53.0753
rfingers 7.12502
rthumb 20.3424 -82.0299
lclavicle -2.78299e-015 1.90833e-014
lhumerus 34.1644 36.3386 -6.0555
lradius 29.1505
lwrist 38.7693
lhand -25.0554 -21.0106
lfingers 7.12502
lthumb 1.45803 8.96421
rfemur -7.47588 13.3935 -10.3739
rtibia 14.8501
rfoot -23.3226 -23.0775
rtoes 45.7519
lfemur -11.3881 3.57337 -34.0401
ltibia -2.70347e-014
lfoot -9.76552 7.12743
ltoes 21.649
2
root -1.15072 17.5165 5.03128 -16.832 -83.4407 37.2031
lowerback -12.0223 1.43918 5.66762
upperback -13.8747 0.624726 -0.434272
thorax -8.05366 -0.631889 -3.5393
lowerneck -5.91277 17.8521 12.4179
upperneck 12.0345 22.4706 2.21576
head 5.7073 11.6362 0.591297
rclavicle 3.37934e-015 -9.54166e-015
rhumerus 8.07897 -25.378 28.2178
rradius 114.616
rwrist -62.8214
rhand -6.03197 -52.8969
rfingers 7.12502
rthumb 19.8016 -81.9082
lclavicle 3.37934e-015 -9.54166e-015
lhumerus 34.2147 36.365 -5.64506
lradius 29.0254
lwrist 38.4748
lhand -25.2441 -21.0032
lfingers 7.12502
lthumb 1.2758 8.97273
rfemur -7.40875 13.4303 -10.2907
rtibia 14.826
rfoot -22.7672 -23.6528
rtoes 45.2031
lfemur -11.3083 3.61373 -33.9709
ltibia 1.43125e-014
lfoot -9.81945 7.13392
ltoes 22.1036
3
root -1.15215 17.5185 5.03195 -16.8623 -83.4839 37.1781
lowerback -11.9972 1.54157 5.71455
upperback -13.8408 0.761983 -0.49148
thorax -8.01385 -0.566095 -3.62052
lowerneck -5.99959 17.752 12.3713
upperneck 12.0048 22.3362 2.16111
head 5.70701 11.5648 0.572923
rclavicle -5.36719e-015 -5.56597e-015
rhumerus 7.86731 -25.4541 28.5363
rradius 114.589
rwrist -63.1095
rhand -7.40642 -51.6723
rfingers 7.12502
rthumb 18.4799 -80.8145
lclavicle -5.36719e-015 -5.56597e-015
lhumerus 34.6932 36.6094 -5.06962
lradius 28.9718
lwrist 38.196
lhand -25.3411 -20.7434
lfingers 7.12502
lthumb 1.18215 9.23311
rfemur -7.45501 13.5022 -10.2495
rtibia 14.9766
rfoot -24.007 -22.6779
rtoes 46.8066
lfemur -11.2523 3.67182 -33.9314
ltibia 1.43125e-014
lfoot -9.75826 7.0756
ltoes 21.6472
4
root -1.15208 17.5208 5.03463 -16.4472 -83.4677 36.7587
lowerback -12.0134 1.58726 5.72842
upperback -13.8099 0.822692 -0.529488
thorax -7.96253 -0.53487 -3.66619
lowerneck -6.18316 17.7048 12.4208
upperneck 12.0726 22.2419 2.13892
head 5.7622 11.5193 0.573819
rclavicle 1.78906e-015 -5.56597e-015
rhumerus 7.57383 -25.4247 28.8165
rradius 114.454
rwrist -63.2673
rhand -7.3734 -51.3552
rfingers 7.12502
rthumb 18.5117 -80.4944
lclavicle 1.78906e-015 -5.56597e-015
lhumerus 34.7523 36.6179 -5.03883
lradius 29.0002
lwrist 38.429
lhand -25.3037 -20.8223
lfingers 7.12502
lthumb 1.21827 9.15401
rfemur -7.49256 13.4639 -10.1942
rtibia 15.1051
rfoot -26.4298 -20.4571
rtoes 49.2399
lfemur -11.2515 3.64206 -33.8972
ltibia -1.27222e-014
lfoot -9.46047 7.10865
ltoes 19.2992
